# xmcd CD database file
#
# Track frame offsets:
#	150
#	20267
#	44022
#
# Disc length: 883 seconds
#
# Revision: 0
# Processed by: cddbd v1.5.1PL0 Copyright (c) Steve Scherf et al.
# Submitted via: CDex 1.51
#
DISCID=1e037103
DTITLE=YOSHII LOVINSON - トブヨウニ
DYEAR=2004
DGENRE=Rock
TTITLE0=トブヨウニ
TTITLE1=BLOWN UP CHILDREN
TTITLE2=HATE
EXTD=YEAR: 2004
EXTT0=
EXTT1=
EXTT2=
PLAYORDER=
